<?xml version="1.0" encoding="UTF-8" standalone="no"?>
<!-- Created with Inkscape (http://www.inkscape.org/) -->

<svg
   xmlns:dc="http://purl.org/dc/elements/1.1/"
   xmlns:cc="http://creativecommons.org/ns#"
   xmlns:rdf="http://www.w3.org/1999/02/22-rdf-syntax-ns#"
   xmlns:svg="http://www.w3.org/2000/svg"
   xmlns="http://www.w3.org/2000/svg"
   xmlns:sodipodi="http://sodipodi.sourceforge.net/DTD/sodipodi-0.dtd"
   xmlns:inkscape="http://www.inkscape.org/namespaces/inkscape"
   width="210mm"
   height="297mm"
   viewBox="0 0 744.09448819 1052.3622047"
   id="svg2"
   version="1.1"
   inkscape:version="0.91 r13725"
   sodipodi:docname="scatvec.svg">
  <sodipodi:namedview
     id="base"
     pagecolor="#ffffff"
     bordercolor="#666666"
     borderopacity="1.0"
     inkscape:pageopacity="0.0"
     inkscape:pageshadow="2"
     inkscape:zoom="0.70710678"
     inkscape:cx="127.31525"
     inkscape:cy="618.81927"
     inkscape:document-units="px"
     inkscape:current-layer="layer1"
     showgrid="false"
     inkscape:window-width="1855"
     inkscape:window-height="1056"
     inkscape:window-x="65"
     inkscape:window-y="24"
     inkscape:window-maximized="1" />
  <defs
     id="defs4">
    <marker
       inkscape:isstock="true"
       style="overflow:visible;"
       id="marker7398"
       refX="0.0"
       refY="0.0"
       orient="auto"
       inkscape:stockid="Arrow1Mend">
      <path
         transform="scale(0.4) rotate(180) translate(10,0)"
         style="fill-rule:evenodd;stroke:#0173b2;stroke-width:1pt;stroke-opacity:1;fill:#0173b2;fill-opacity:1"
         d="M 0.0,0.0 L 5.0,-5.0 L -12.5,0.0 L 5.0,5.0 L 0.0,0.0 z "
         id="path7400" />
    </marker>
    <marker
       inkscape:stockid="Arrow1Mend"
       orient="auto"
       refY="0.0"
       refX="0.0"
       id="marker7272"
       style="overflow:visible;"
       inkscape:isstock="true">
      <path
         id="path7274"
         d="M 0.0,0.0 L 5.0,-5.0 L -12.5,0.0 L 5.0,5.0 L 0.0,0.0 z "
         style="fill-rule:evenodd;stroke:#000000;stroke-width:1pt;stroke-opacity:1;fill:#000000;fill-opacity:1"
         transform="scale(0.4) rotate(180) translate(10,0)" />
    </marker>
    <marker
       inkscape:isstock="true"
       style="overflow:visible;"
       id="marker7176"
       refX="0.0"
       refY="0.0"
       orient="auto"
       inkscape:stockid="Arrow1Mend">
      <path
         transform="scale(0.4) rotate(180) translate(10,0)"
         style="fill-rule:evenodd;stroke:#000000;stroke-width:1pt;stroke-opacity:1;fill:#000000;fill-opacity:1"
         d="M 0.0,0.0 L 5.0,-5.0 L -12.5,0.0 L 5.0,5.0 L 0.0,0.0 z "
         id="path7178" />
    </marker>
    <marker
       inkscape:collect="always"
       inkscape:isstock="true"
       style="overflow:visible;"
       id="marker6762"
       refX="0.0"
       refY="0.0"
       orient="auto"
       inkscape:stockid="Arrow1Mend">
      <path
         transform="scale(0.4) rotate(180) translate(10,0)"
         style="fill-rule:evenodd;stroke:#000000;stroke-width:1pt;stroke-opacity:1;fill:#000000;fill-opacity:1"
         d="M 0.0,0.0 L 5.0,-5.0 L -12.5,0.0 L 5.0,5.0 L 0.0,0.0 z "
         id="path6764" />
    </marker>
    <marker
       inkscape:collect="always"
       inkscape:stockid="Arrow1Mend"
       orient="auto"
       refY="0.0"
       refX="0.0"
       id="marker6316"
       style="overflow:visible;"
       inkscape:isstock="true">
      <path
         id="path6318"
         d="M 0.0,0.0 L 5.0,-5.0 L -12.5,0.0 L 5.0,5.0 L 0.0,0.0 z "
         style="fill-rule:evenodd;stroke:#000000;stroke-width:1pt;stroke-opacity:1;fill:#000000;fill-opacity:1"
         transform="scale(0.4) rotate(180) translate(10,0)" />
    </marker>
    <marker
       inkscape:stockid="Arrow1Mend"
       orient="auto"
       refY="0.0"
       refX="0.0"
       id="marker4516"
       style="overflow:visible;"
       inkscape:isstock="true">
      <path
         id="path4518"
         d="M 0.0,0.0 L 5.0,-5.0 L -12.5,0.0 L 5.0,5.0 L 0.0,0.0 z "
         style="fill-rule:evenodd;stroke:#000000;stroke-width:1pt;stroke-opacity:1;fill:#000000;fill-opacity:1"
         transform="scale(0.4) rotate(180) translate(10,0)" />
    </marker>
    <marker
       inkscape:isstock="true"
       style="overflow:visible;"
       id="Arrow1Lend"
       refX="0.0"
       refY="0.0"
       orient="auto"
       inkscape:stockid="Arrow1Lend">
      <path
         transform="scale(0.8) rotate(180) translate(12.5,0)"
         style="fill-rule:evenodd;stroke:#000000;stroke-width:1pt;stroke-opacity:1;fill:#000000;fill-opacity:1"
         d="M 0.0,0.0 L 5.0,-5.0 L -12.5,0.0 L 5.0,5.0 L 0.0,0.0 z "
         id="path4155" />
    </marker>
  </defs>
  <metadata
     id="metadata7">
    <rdf:RDF>
      <cc:Work
         rdf:about="">
        <dc:format>image/svg+xml</dc:format>
        <dc:type
           rdf:resource="http://purl.org/dc/dcmitype/StillImage" />
        <dc:title />
      </cc:Work>
    </rdf:RDF>
  </metadata>
  <g
     id="layer1"
     inkscape:groupmode="layer"
     inkscape:label="Layer 1">
    <rect
       inkscape:export-ydpi="600"
       inkscape:export-xdpi="600"
       transform="matrix(0.25881905,0.96592583,-0.96592583,0.25881905,0,0)"
       y="219.92393"
       x="478.12704"
       height="47.536079"
       width="47.536079"
       id="rect6245"
       style="opacity:1;fill:none;fill-opacity:1;stroke:#000000;stroke-width:5;stroke-linecap:round;stroke-miterlimit:4;stroke-dasharray:none;stroke-dashoffset:0;stroke-opacity:1" />
    <rect
       inkscape:export-ydpi="600"
       inkscape:export-xdpi="600"
       style="opacity:1;fill:none;fill-opacity:1;stroke:#000000;stroke-width:5;stroke-linecap:round;stroke-miterlimit:4;stroke-dasharray:none;stroke-dashoffset:0;stroke-opacity:1"
       id="rect6289"
       width="47.536079"
       height="47.536079"
       x="430.51099"
       y="219.89914"
       transform="matrix(0.25881905,0.96592583,-0.96592583,0.25881905,0,0)" />
    <path
       inkscape:export-ydpi="600"
       inkscape:export-xdpi="600"
       inkscape:connector-curvature="0"
       id="path6291"
       d="M -132.43779,530.47473 459.70166,371.81235"
       style="fill:none;fill-rule:evenodd;stroke:#ffffff;stroke-width:5.3;stroke-linecap:butt;stroke-linejoin:miter;stroke-miterlimit:4;stroke-dasharray:none;stroke-dashoffset:0;stroke-opacity:1" />
    <path
       inkscape:export-ydpi="600"
       inkscape:export-xdpi="600"
       style="fill:none;fill-rule:evenodd;stroke:#000000;stroke-width:5;stroke-linecap:butt;stroke-linejoin:miter;stroke-miterlimit:4;stroke-dasharray:5,15;stroke-dashoffset:0;stroke-opacity:1"
       d="M -132.43779,530.47473 459.70166,371.81235"
       id="path3794"
       inkscape:connector-curvature="0" />
    <flowRoot
       style="fill:black;stroke:none;stroke-opacity:1;stroke-width:1px;stroke-linejoin:miter;stroke-linecap:butt;fill-opacity:1;font-family:sans-serif;font-style:normal;font-weight:normal;font-size:40px;line-height:125%;letter-spacing:0px;word-spacing:0px"
       id="flowRoot6659"
       xml:space="preserve"><flowRegion
         id="flowRegion6661"><rect
           y="-129.51627"
           x="-579.82758"
           height="1004.0916"
           width="1650.5892"
           id="rect6663" /></flowRegion><flowPara
         id="flowPara6665" /></flowRoot>    <path
       inkscape:export-ydpi="600"
       inkscape:export-xdpi="600"
       inkscape:connector-curvature="0"
       id="path6746"
       d="m -180,368.9413 631.91167,0"
       style="fill:none;fill-rule:evenodd;stroke:#000000;stroke-width:5;stroke-linecap:butt;stroke-linejoin:miter;stroke-miterlimit:4;stroke-dasharray:none;stroke-opacity:1;marker-end:url(#marker6316)" />
    <path
       inkscape:export-ydpi="600"
       inkscape:export-xdpi="600"
       style="fill:none;fill-rule:evenodd;stroke:#000000;stroke-width:5;stroke-linecap:butt;stroke-linejoin:miter;stroke-miterlimit:4;stroke-dasharray:none;stroke-opacity:1;marker-end:url(#marker6762)"
       d="M 464.24304,368.59309 1011.4947,52.637423"
       id="path6760"
       inkscape:connector-curvature="0" />
    <path
       inkscape:export-ydpi="600"
       inkscape:export-xdpi="600"
       style="fill:none;fill-rule:evenodd;stroke:#000000;stroke-width:5;stroke-linecap:butt;stroke-linejoin:miter;stroke-miterlimit:4;stroke-dasharray:none;stroke-opacity:1"
       d="m 462.73431,368.9413 257.09385,0"
       id="path7174"
       inkscape:connector-curvature="0" />
    <path
       inkscape:export-ydpi="600"
       inkscape:export-xdpi="600"
       inkscape:connector-curvature="0"
       id="path7270"
       d="M -91.406783,689.39564 507.23975,343.76747"
       style="fill:none;fill-rule:evenodd;stroke:#000000;stroke-width:5;stroke-linecap:butt;stroke-linejoin:miter;stroke-miterlimit:4;stroke-dasharray:5,5;stroke-dashoffset:0;stroke-opacity:1" />
    <path
       inkscape:export-ydpi="600"
       inkscape:export-xdpi="600"
       style="fill:none;fill-rule:evenodd;stroke:#0173b2;stroke-width:5;stroke-linecap:butt;stroke-linejoin:miter;stroke-miterlimit:4;stroke-dasharray:none;stroke-opacity:1;marker-end:url(#marker7398)"
       d="m -177.51665,370.81866 82.717281,308.70512"
       id="path7396"
       inkscape:connector-curvature="0" />
    <path
       inkscape:export-ydpi="600"
       inkscape:export-xdpi="600"
       inkscape:connector-curvature="0"
       id="path9052"
       d="m 688.44306,368.63412 c 0,0 19.57334,-61.18727 -29.56017,-110.32093"
       style="fill:none;fill-rule:evenodd;stroke:#000000;stroke-width:5;stroke-linecap:butt;stroke-linejoin:miter;stroke-miterlimit:4;stroke-dasharray:none;stroke-opacity:1" />
    <path
       inkscape:export-ydpi="600"
       inkscape:export-xdpi="600"
       style="fill:none;fill-rule:evenodd;stroke:#000000;stroke-width:5;stroke-linecap:butt;stroke-linejoin:miter;stroke-miterlimit:4;stroke-dasharray:none;stroke-opacity:1"
       d="m 246.93565,367.82899 c 0,0 -19.57329,61.18737 29.56031,110.32085"
       id="path9054"
       inkscape:connector-curvature="0" />
    <g
       inkscape:export-ydpi="600"
       inkscape:export-xdpi="600"
       transform="translate(-506.8772,-81.259885)"
       id="g4767">
      <g
         style="font-style:normal;font-variant:normal;font-weight:normal;font-stretch:normal;letter-spacing:normal;word-spacing:normal;text-anchor:start;fill:none;fill-opacity:1;fill-rule:evenodd;stroke:#000000;stroke-linecap:butt;stroke-linejoin:miter;stroke-miterlimit:10.43299961;stroke-dasharray:none;stroke-dashoffset:0;stroke-opacity:1"
         id="g4769"
         transform="matrix(1.0629921,0,0,-1.0629921,-186.02362,789.27165)"
         xml:space="preserve"
         stroke-miterlimit="10.433"
         font-style="normal"
         font-variant="normal"
         font-weight="normal"
         font-stretch="normal"
         font-size-adjust="none"
         letter-spacing="normal"
         word-spacing="normal"><path
           style="fill:#000000;stroke-width:0"
           inkscape:connector-curvature="0"
           d="m 1221.3,349.84 5.3,5.12 c 7.8,6.88 10.8,9.57 10.8,14.55 0,5.68 -4.5,9.67 -10.6,9.67 -5.6,0 -9.3,-4.59 -9.3,-9.02 0,-2.79 2.5,-2.79 2.6,-2.79 0.9,0 2.6,0.6 2.6,2.64 0,1.29 -0.9,2.59 -2.6,2.59 -0.4,0 -0.5,0 -0.7,-0.05 1.2,3.24 3.9,5.08 6.8,5.08 4.5,0 6.6,-4.03 6.6,-8.12 0,-3.98 -2.5,-7.92 -5.2,-11.01 l -9.6,-10.66 c -0.5,-0.54 -0.5,-0.64 -0.5,-1.84 l 18.5,0 1.4,8.67 -1.3,0 c -0.2,-1.5 -0.6,-3.69 -1.1,-4.44 -0.3,-0.39 -3.6,-0.39 -4.7,-0.39 z"
           id="path4771" /><path
           style="fill:#000000;stroke-width:0"
           inkscape:connector-curvature="0"
           d="m 1262.7,370.91 0,0.31 -0.1,0.34 0,0.36 0,0.37 0,0.38 -0.1,0.4 0,0.41 -0.1,0.41 0,0.42 -0.1,0.42 -0.1,0.43 -0.1,0.42 -0.1,0.43 -0.1,0.42 -0.2,0.41 -0.1,0.4 -0.2,0.4 -0.2,0.39 -0.2,0.37 -0.2,0.35 -0.2,0.34 -0.3,0.32 -0.2,0.3 -0.3,0.27 -0.3,0.25 -0.2,0.12 -0.2,0.11 -0.1,0.1 -0.2,0.09 -0.2,0.09 -0.2,0.07 -0.2,0.07 -0.2,0.06 -0.2,0.06 -0.2,0.04 -0.2,0.03 -0.2,0.03 -0.3,0.01 -0.2,0.01 -0.1,-1.1 c 2.5,0 2.8,-3.18 2.8,-6.02 0,-2.45 -0.4,-4.99 -1.6,-9.92 l -10.4,0 c 0.8,3.19 1.8,7.17 3.8,10.71 1.4,2.44 3.2,5.23 5.4,5.23 l 0.1,1.1 c -6.9,0 -14.6,-14.05 -14.6,-25.46 0,-4.68 1.4,-10.21 6,-10.21 l 0,1.1 c -1.7,0 -2.7,1.44 -2.7,6.07 0,2.1 0.3,4.99 1.6,9.87 l 10.3,0 c -0.5,-2.29 -1.6,-6.53 -3.5,-10.11 -1.7,-3.39 -3.6,-5.83 -5.7,-5.83 l 0,-1.1 c 7,0 14.6,14.3 14.6,25.46 z"
           id="path4773" /></g>    </g>
    <g
       inkscape:export-ydpi="600"
       inkscape:export-xdpi="600"
       transform="translate(-990.96515,-68.06393)"
       id="g4971">
      <g
         style="font-style:normal;font-variant:normal;font-weight:normal;font-stretch:normal;letter-spacing:normal;word-spacing:normal;text-anchor:start;fill:none;fill-opacity:1;fill-rule:evenodd;stroke:#000000;stroke-linecap:butt;stroke-linejoin:miter;stroke-miterlimit:10.43299961;stroke-dasharray:none;stroke-dashoffset:0;stroke-opacity:1"
         id="g4973"
         transform="matrix(1.0629921,0,0,-1.0629921,-186.02362,789.27165)"
         xml:space="preserve"
         stroke-miterlimit="10.433"
         font-style="normal"
         font-variant="normal"
         font-weight="normal"
         font-stretch="normal"
         font-size-adjust="none"
         letter-spacing="normal"
         word-spacing="normal"><path
           style="fill:#000000;stroke-width:0"
           inkscape:connector-curvature="0"
           d="m 1227.7,357.8 0,22.77 -8.9,-0.4 0,-2.34 c 3.1,0 3.5,0 3.5,-1.94 l 0,-27.55 -3.5,0 0,-2.34 12,0 0,2.34 -3.4,0 0,6.33 c 1.5,1.14 1.8,1.44 2.8,2.14 l 5.1,-6.28 c 0.4,-0.6 1.2,-1.59 1.2,-1.74 0,-0.45 -0.9,-0.45 -1.5,-0.45 l 0,-2.34 11.2,0 0,2.34 -0.8,0 c -2.2,0 -2.3,0.2 -3,1 l -8.4,10.51 6.5,5.03 c 0.7,0.55 1.2,0.9 4.5,0.9 l 0,2.34 -9.6,0 0,-2.34 c 1.1,0 1.3,-0.16 1.7,-0.55 z"
           id="path4975" /><path
           style="fill:#000000;stroke-width:0"
           inkscape:connector-curvature="0"
           d="m 1258.3,360.79 0,0.06 0,0.05 0,0.05 0,0.06 0,0.06 0,0.05 -0.1,0.06 0,0.06 0,0.05 0,0.06 -0.1,0.05 0,0.06 0,0.05 -0.1,0.05 0,0.05 0,0.05 -0.1,0.05 0,0.05 -0.1,0.04 0,0.05 -0.1,0.04 0,0.03 -0.1,0.04 -0.1,0.03 0,0.03 -0.1,0.02 -0.1,0.02 -0.1,0.02 0,0.02 -0.1,0.01 -0.1,0 -0.1,0.01 c -0.9,0 -2,-0.91 -2,-1.92 0,-0.59 0.5,-1.32 1.4,-1.32 1.1,0 2,0.97 2,1.91 z"
           id="path4977" /><path
           style="fill:#000000;stroke-width:0"
           inkscape:connector-curvature="0"
           d="m 1251.2,343.08 -0.1,-0.17 0,-0.17 -0.1,-0.08 0,-0.09 0,-0.08 0,-0.09 0,-0.09 -0.1,-0.09 0,-0.1 0,-0.09 0,-0.1 0,-0.05 0,-0.05 0,-0.05 0,-0.06 0,-0.05 0,-0.06 c 0,-1.63 1.4,-2.96 3.3,-2.96 3.5,0 5,4.81 5,5.33 0,0.46 -0.4,0.46 -0.6,0.46 -0.4,0 -0.5,-0.21 -0.6,-0.59 -0.8,-2.79 -2.3,-4.22 -3.7,-4.22 -0.7,0 -0.9,0.45 -0.9,1.22 0,0.8 0.3,1.46 0.6,2.23 0.3,0.94 0.7,1.88 1.1,2.79 0.3,0.84 1.6,4.01 1.7,4.43 0.1,0.34 0.2,0.77 0.2,1.11 0,1.64 -1.4,2.97 -3.3,2.97 -3.5,0 -5.1,-4.74 -5.1,-5.34 0,-0.45 0.5,-0.45 0.6,-0.45 0.5,0 0.6,0.17 0.7,0.56 0.9,2.99 2.4,4.25 3.7,4.25 0.6,0 0.9,-0.28 0.9,-1.22 0,-0.8 -0.3,-1.32 -1.1,-3.48 z"
           id="path4979" /></g>    </g>
    <g
       inkscape:export-ydpi="600"
       inkscape:export-xdpi="600"
       transform="matrix(0.8660254,-0.5,0.5,0.8660254,-437.04055,376.74947)"
       id="g5089">
      <g
         style="font-style:normal;font-variant:normal;font-weight:normal;font-stretch:normal;letter-spacing:normal;word-spacing:normal;text-anchor:start;fill:none;fill-opacity:1;fill-rule:evenodd;stroke:#000000;stroke-linecap:butt;stroke-linejoin:miter;stroke-miterlimit:10.43299961;stroke-dasharray:none;stroke-dashoffset:0;stroke-opacity:1"
         word-spacing="normal"
         letter-spacing="normal"
         font-size-adjust="none"
         font-stretch="normal"
         font-weight="normal"
         font-variant="normal"
         font-style="normal"
         stroke-miterlimit="10.433"
         xml:space="preserve"
         transform="matrix(1.0629921,0,0,-1.0629921,-186.02362,789.27165)"
         id="g5091"><path
           style="fill:#000000;stroke-width:0"
           inkscape:connector-curvature="0"
           id="path5093"
           d="m 1222.7,357.8 0,22.77 -8.9,-0.4 0,-2.34 c 3.1,0 3.5,0 3.5,-1.94 l 0,-27.55 -3.5,0 0,-2.34 12,0 0,2.34 -3.4,0 0,6.33 c 1.5,1.14 1.8,1.44 2.8,2.14 l 5.1,-6.28 c 0.4,-0.6 1.2,-1.59 1.2,-1.74 0,-0.45 -0.9,-0.45 -1.5,-0.45 l 0,-2.34 11.2,0 0,2.34 -0.8,0 c -2.2,0 -2.3,0.2 -3,1 l -8.4,10.51 6.5,5.03 c 0.7,0.55 1.2,0.9 4.5,0.9 l 0,2.34 -9.6,0 0,-2.34 c 1.1,0 1.3,-0.16 1.7,-0.55 z" /><path
           style="fill:#000000;stroke-width:0"
           inkscape:connector-curvature="0"
           id="path5095"
           d="m 1256.2,352.77 3.4,0 c 0.7,0 1.2,0 1.2,0.77 0,0.49 -0.5,0.49 -1.1,0.49 l -3.3,0 c 0.8,4.43 1.1,6.03 1.4,7.04 0.2,0.77 0.9,1.5 1.8,1.5 0,0 1,0 1.6,-0.42 -1.4,-0.45 -1.5,-1.7 -1.5,-1.92 0,-0.76 0.6,-1.28 1.4,-1.28 0.9,0 2,0.8 2,2.12 0,1.61 -1.8,2.48 -3.5,2.48 -1.6,0 -3.3,-0.87 -4.2,-2.62 -0.7,-1.29 -1,-2.86 -1.7,-6.9 l -2.8,0 c -0.7,0 -1.1,0 -1.1,-0.77 0,-0.49 0.4,-0.49 1.1,-0.49 l 2.5,0 c 0,-0.21 -2.2,-12.76 -3,-16.49 -0.2,-0.77 -0.8,-3.42 -2.5,-3.42 0,0 -0.8,0 -1.5,0.42 1.4,0.45 1.5,1.71 1.5,1.92 0,0.76 -0.6,1.29 -1.4,1.29 -0.9,0 -1.9,-0.8 -1.9,-2.13 0,-1.57 1.6,-2.47 3.3,-2.47 2.3,0 3.8,2.3 4.2,3.07 1.3,2.33 2.1,6.62 2.1,7.04 z" /></g>    </g>
    <g
       inkscape:export-ydpi="600"
       inkscape:export-xdpi="600"
       transform="matrix(0.8660254,-0.5,0.5,0.8660254,-977.8102,775.32197)"
       id="g5213">
      <g
         style="font-style:normal;font-variant:normal;font-weight:normal;font-stretch:normal;letter-spacing:normal;word-spacing:normal;text-anchor:start;fill:none;fill-opacity:1;fill-rule:evenodd;stroke:#000000;stroke-linecap:butt;stroke-linejoin:miter;stroke-miterlimit:10.43299961;stroke-dasharray:none;stroke-dashoffset:0;stroke-opacity:1"
         id="g5215"
         transform="matrix(1.0629921,0,0,-1.0629921,-186.02362,789.27165)"
         xml:space="preserve"
         stroke-miterlimit="10.433"
         font-style="normal"
         font-variant="normal"
         font-weight="normal"
         font-stretch="normal"
         font-size-adjust="none"
         letter-spacing="normal"
         word-spacing="normal"><path
           style="fill:#000000;stroke-width:0"
           inkscape:connector-curvature="0"
           d="m 1225.8,357.46 0.2,0 0.1,0 0.2,0 0.1,0.01 0.1,0 0,0.01 0.1,0.01 0.1,0.01 0,0.01 0.1,0.01 0.1,0.02 0.1,0.02 0,0.02 0.1,0.03 0,0.02 0.1,0.04 0,0.03 0.1,0.04 0,0.04 0.1,0.05 0,0.05 0,0.02 0.1,0.03 0,0.03 0,0.03 0,0.03 0,0.04 0,0.03 0,0.03 0,0.04 0,0.04 0.1,0.04 0,0.04 0,0.04 0,0.04 0,0.05 0,0.04 c 0,1 -0.9,1 -1.8,1 l -26.9,0 c -0.9,0 -1.8,0 -1.8,-1 0,-0.99 0.9,-0.99 1.8,-0.99 z"
           id="path5217" /><path
           style="fill:#000000;stroke-width:0"
           inkscape:connector-curvature="0"
           d="m 1241.7,357.8 0,22.77 -8.9,-0.4 0,-2.34 c 3.1,0 3.5,0 3.5,-1.94 l 0,-27.55 -3.5,0 0,-2.34 12,0 0,2.34 -3.4,0 0,6.33 c 1.5,1.14 1.8,1.44 2.8,2.14 l 5.1,-6.28 c 0.4,-0.6 1.2,-1.59 1.2,-1.74 0,-0.45 -0.9,-0.45 -1.5,-0.45 l 0,-2.34 11.2,0 0,2.34 -0.8,0 c -2.2,0 -2.3,0.2 -3,1 l -8.4,10.51 6.5,5.03 c 0.7,0.55 1.2,0.9 4.5,0.9 l 0,2.34 -9.6,0 0,-2.34 c 1.1,0 1.3,-0.16 1.7,-0.55 z"
           id="path5219" /><path
           style="fill:#000000;stroke-width:0"
           inkscape:connector-curvature="0"
           d="m 1276.2,352.77 3.4,0 c 0.7,0 1.2,0 1.2,0.77 0,0.49 -0.5,0.49 -1.1,0.49 l -3.3,0 c 0.8,4.43 1.1,6.03 1.4,7.04 0.2,0.77 0.9,1.5 1.8,1.5 0,0 1,0 1.6,-0.42 -1.4,-0.45 -1.5,-1.7 -1.5,-1.92 0,-0.76 0.6,-1.28 1.4,-1.28 0.9,0 2,0.8 2,2.12 0,1.61 -1.8,2.48 -3.5,2.48 -1.6,0 -3.3,-0.87 -4.2,-2.62 -0.7,-1.29 -1,-2.86 -1.7,-6.9 l -2.8,0 c -0.7,0 -1.1,0 -1.1,-0.77 0,-0.49 0.4,-0.49 1.1,-0.49 l 2.5,0 c 0,-0.21 -2.2,-12.76 -3,-16.49 -0.2,-0.77 -0.8,-3.42 -2.5,-3.42 0,0 -0.8,0 -1.5,0.42 1.4,0.45 1.5,1.71 1.5,1.92 0,0.76 -0.6,1.29 -1.4,1.29 -0.9,0 -1.9,-0.8 -1.9,-2.13 0,-1.57 1.6,-2.47 3.3,-2.47 2.3,0 3.8,2.3 4.2,3.07 1.3,2.33 2.1,6.62 2.1,7.04 z"
           id="path5221" /></g>    </g>
    <g
       inkscape:export-ydpi="600"
       inkscape:export-xdpi="600"
       transform="matrix(0.82200609,0,0,0.82200609,-632.43684,109.08473)"
       id="g5285">
      <g
         style="font-style:normal;font-variant:normal;font-weight:normal;font-stretch:normal;letter-spacing:normal;word-spacing:normal;text-anchor:start;fill:none;fill-opacity:1;fill-rule:evenodd;stroke:#000000;stroke-linecap:butt;stroke-linejoin:miter;stroke-miterlimit:10.43299961;stroke-dasharray:none;stroke-dashoffset:0;stroke-opacity:1"
         id="g5287"
         transform="matrix(1.0629921,0,0,-1.0629921,-186.02362,789.27165)"
         xml:space="preserve"
         stroke-miterlimit="10.433"
         font-style="normal"
         font-variant="normal"
         font-weight="normal"
         font-stretch="normal"
         font-size-adjust="none"
         letter-spacing="normal"
         word-spacing="normal"><path
           style="fill:#000000;stroke-width:0"
           inkscape:connector-curvature="0"
           d="m 1250.7,370.91 0,0.31 -0.1,0.34 0,0.36 0,0.37 0,0.38 -0.1,0.4 0,0.41 -0.1,0.41 0,0.42 -0.1,0.42 -0.1,0.43 -0.1,0.42 -0.1,0.43 -0.1,0.42 -0.2,0.41 -0.1,0.4 -0.2,0.4 -0.2,0.39 -0.2,0.37 -0.2,0.35 -0.2,0.34 -0.3,0.32 -0.2,0.3 -0.3,0.27 -0.3,0.25 -0.2,0.12 -0.2,0.11 -0.1,0.1 -0.2,0.09 -0.2,0.09 -0.2,0.07 -0.2,0.07 -0.2,0.06 -0.2,0.06 -0.2,0.04 -0.2,0.03 -0.2,0.03 -0.3,0.01 -0.2,0.01 -0.1,-1.1 c 2.5,0 2.8,-3.18 2.8,-6.02 0,-2.45 -0.4,-4.99 -1.6,-9.92 l -10.4,0 c 0.8,3.19 1.8,7.17 3.8,10.71 1.4,2.44 3.2,5.23 5.4,5.23 l 0.1,1.1 c -6.9,0 -14.6,-14.05 -14.6,-25.46 0,-4.68 1.4,-10.21 6,-10.21 l 0,1.1 c -1.7,0 -2.7,1.44 -2.7,6.07 0,2.1 0.3,4.99 1.6,9.87 l 10.3,0 c -0.5,-2.29 -1.6,-6.53 -3.5,-10.11 -1.7,-3.39 -3.6,-5.83 -5.7,-5.83 l 0,-1.1 c 7,0 14.6,14.3 14.6,25.46 z"
           id="path5289" /></g>    </g>
    <g
       inkscape:export-ydpi="600"
       inkscape:export-xdpi="600"
       id="g6227"
       transform="matrix(0.82200609,0,0,0.82200609,-646.43684,61.08473)">
      <g
         word-spacing="normal"
         letter-spacing="normal"
         font-size-adjust="none"
         font-stretch="normal"
         font-weight="normal"
         font-variant="normal"
         font-style="normal"
         stroke-miterlimit="10.433"
         xml:space="preserve"
         transform="matrix(1.0629921,0,0,-1.0629921,-186.02362,789.27165)"
         id="g6229"
         style="font-style:normal;font-variant:normal;font-weight:normal;font-stretch:normal;letter-spacing:normal;word-spacing:normal;text-anchor:start;fill:none;fill-opacity:1;fill-rule:evenodd;stroke:#000000;stroke-linecap:butt;stroke-linejoin:miter;stroke-miterlimit:10.43299961;stroke-dasharray:none;stroke-dashoffset:0;stroke-opacity:1"><path
           id="path6231"
           d="m 1250.7,370.91 0,0.31 -0.1,0.34 0,0.36 0,0.37 0,0.38 -0.1,0.4 0,0.41 -0.1,0.41 0,0.42 -0.1,0.42 -0.1,0.43 -0.1,0.42 -0.1,0.43 -0.1,0.42 -0.2,0.41 -0.1,0.4 -0.2,0.4 -0.2,0.39 -0.2,0.37 -0.2,0.35 -0.2,0.34 -0.3,0.32 -0.2,0.3 -0.3,0.27 -0.3,0.25 -0.2,0.12 -0.2,0.11 -0.1,0.1 -0.2,0.09 -0.2,0.09 -0.2,0.07 -0.2,0.07 -0.2,0.06 -0.2,0.06 -0.2,0.04 -0.2,0.03 -0.2,0.03 -0.3,0.01 -0.2,0.01 -0.1,-1.1 c 2.5,0 2.8,-3.18 2.8,-6.02 0,-2.45 -0.4,-4.99 -1.6,-9.92 l -10.4,0 c 0.8,3.19 1.8,7.17 3.8,10.71 1.4,2.44 3.2,5.23 5.4,5.23 l 0.1,1.1 c -6.9,0 -14.6,-14.05 -14.6,-25.46 0,-4.68 1.4,-10.21 6,-10.21 l 0,1.1 c -1.7,0 -2.7,1.44 -2.7,6.07 0,2.1 0.3,4.99 1.6,9.87 l 10.3,0 c -0.5,-2.29 -1.6,-6.53 -3.5,-10.11 -1.7,-3.39 -3.6,-5.83 -5.7,-5.83 l 0,-1.1 c 7,0 14.6,14.3 14.6,25.46 z"
           inkscape:connector-curvature="0"
           style="fill:#000000;stroke-width:0" /></g>    </g>
    <flowRoot
       style="fill:black;stroke:none;stroke-opacity:1;stroke-width:1px;stroke-linejoin:miter;stroke-linecap:butt;fill-opacity:1;font-family:sans-serif;font-style:normal;font-weight:normal;font-size:40px;line-height:125%;letter-spacing:0px;word-spacing:0px"
       id="flowRoot6293"
       xml:space="preserve"><flowRegion
         id="flowRegion6295"><rect
           y="514.36218"
           x="-166"
           height="52"
           width="8"
           id="rect6297" /></flowRegion><flowPara
         id="flowPara6299" /></flowRoot>    <g
       id="g6363"
       transform="matrix(0.25881905,0.96592583,-0.96592583,0.25881905,-57.14067,-660.81818)">
      <g
         word-spacing="normal"
         letter-spacing="normal"
         font-size-adjust="none"
         font-stretch="normal"
         font-weight="normal"
         font-variant="normal"
         font-style="normal"
         stroke-miterlimit="10.433"
         xml:space="preserve"
         transform="matrix(1.0629921,0,0,-1.0629921,-186.02362,789.27165)"
         id="content"
         style="font-style:normal;font-variant:normal;font-weight:normal;font-stretch:normal;letter-spacing:normal;word-spacing:normal;text-anchor:start;fill:none;fill-opacity:1;fill-rule:evenodd;stroke:#000000;stroke-linecap:butt;stroke-linejoin:miter;stroke-miterlimit:10.43299961;stroke-dasharray:none;stroke-dashoffset:0;stroke-opacity:1"><path
           id="path6366"
           d="m 1246.8,364.48 -0.1,0.23 -0.2,0.22 -0.2,0.21 -0.2,0.21 -0.2,0.2 -0.2,0.2 -0.2,0.19 -0.2,0.18 -0.2,0.18 -0.2,0.17 -0.2,0.17 -0.2,0.16 -0.3,0.15 -0.2,0.14 -0.2,0.14 -0.3,0.13 -0.2,0.13 -0.3,0.11 -0.2,0.11 -0.3,0.1 -0.2,0.1 -0.3,0.08 -0.2,0.08 -0.3,0.07 -0.3,0.07 -0.2,0.05 -0.3,0.05 -0.3,0.04 -0.3,0.03 -0.2,0.02 -0.3,0.01 -0.3,0 c -7.3,0 -12.4,-4.43 -12.4,-11.35 0,-7.02 5,-11.36 11.9,-11.36 l 0.5,1.8 c -3,0 -6,2.88 -6,9.51 0,7.07 3.7,9.41 6.6,9.41 3.8,0 6.2,-3.93 6.2,-6.42 l 0,-6.93 c 0,-0.89 0,-1.04 -0.7,-2.09 -2,-2.94 -4.6,-3.48 -6.1,-3.48 l -0.5,-1.8 c 2.5,0 4.7,0.7 7,2.69 l 0,-9.71 -3.4,0 0,-2.34 12.5,0 0,2.34 -3.4,0 0,29.73 -2,0 z"
           inkscape:connector-curvature="0"
           style="fill:#000000;stroke-width:0" /></g>    </g>
  </g>
</svg>
