<?xml version="1.0" encoding="UTF-8" standalone="no"?>
<!-- Created with Inkscape (http://www.inkscape.org/) -->

<svg
   xmlns:dc="http://purl.org/dc/elements/1.1/"
   xmlns:cc="http://creativecommons.org/ns#"
   xmlns:rdf="http://www.w3.org/1999/02/22-rdf-syntax-ns#"
   xmlns:svg="http://www.w3.org/2000/svg"
   xmlns="http://www.w3.org/2000/svg"
   xmlns:sodipodi="http://sodipodi.sourceforge.net/DTD/sodipodi-0.dtd"
   xmlns:inkscape="http://www.inkscape.org/namespaces/inkscape"
   width="210mm"
   height="297mm"
   viewBox="0 0 744.09448819 1052.3622047"
   id="svg2"
   version="1.1"
   inkscape:version="0.91 r13725"
   sodipodi:docname="singleatom.svg">
  <sodipodi:namedview
     id="base"
     pagecolor="#ffffff"
     bordercolor="#666666"
     borderopacity="1.0"
     inkscape:pageopacity="0.0"
     inkscape:pageshadow="2"
     inkscape:zoom="1.4"
     inkscape:cx="391.69345"
     inkscape:cy="496.9044"
     inkscape:document-units="px"
     inkscape:current-layer="layer1"
     showgrid="false"
     inkscape:window-width="1855"
     inkscape:window-height="1056"
     inkscape:window-x="65"
     inkscape:window-y="24"
     inkscape:window-maximized="1" />
  <defs
     id="defs4">
    <marker
       inkscape:isstock="true"
       style="overflow:visible;"
       id="marker4516"
       refX="0.0"
       refY="0.0"
       orient="auto"
       inkscape:stockid="Arrow1Mend">
      <path
         transform="scale(0.4) rotate(180) translate(10,0)"
         style="fill-rule:evenodd;stroke:#de8f05;stroke-width:1pt;stroke-opacity:1;fill:#de8f05;fill-opacity:1"
         d="M 0.0,0.0 L 5.0,-5.0 L -12.5,0.0 L 5.0,5.0 L 0.0,0.0 z "
         id="path4518" />
    </marker>
    <marker
       inkscape:stockid="Arrow1Mend"
       orient="auto"
       refY="0.0"
       refX="0.0"
       id="Arrow1Mend"
       style="overflow:visible;"
       inkscape:isstock="true"
       inkscape:collect="always">
      <path
         id="path4151"
         d="M 0.0,0.0 L 5.0,-5.0 L -12.5,0.0 L 5.0,5.0 L 0.0,0.0 z "
         style="fill-rule:evenodd;stroke:#000000;stroke-width:1pt;stroke-opacity:1;fill:#000000;fill-opacity:1"
         transform="scale(0.4) rotate(180) translate(10,0)" />
    </marker>
  </defs>
  <metadata
     id="metadata7">
    <rdf:RDF>
      <cc:Work
         rdf:about="">
        <dc:format>image/svg+xml</dc:format>
        <dc:type
           rdf:resource="http://purl.org/dc/dcmitype/StillImage" />
        <dc:title></dc:title>
      </cc:Work>
    </rdf:RDF>
  </metadata>
  <g
     inkscape:label="Layer 1"
     inkscape:groupmode="layer"
     id="layer1">
    <path
       inkscape:connector-curvature="0"
       id="path4514"
       d="M 350.75,447.05217 518.99279,349.91715"
       style="fill:none;fill-rule:evenodd;stroke:#de8f05;stroke-width:2;stroke-linecap:butt;stroke-linejoin:miter;stroke-miterlimit:4;stroke-dasharray:none;stroke-opacity:1;marker-end:url(#marker4516)" />
    <path
       style="fill:none;fill-rule:evenodd;stroke:#000000;stroke-width:2.00004578;stroke-linecap:butt;stroke-linejoin:miter;stroke-miterlimit:4;stroke-dasharray:none;stroke-opacity:1;marker-end:url(#Arrow1Mend)"
       d="m 150,447.35124 396.1798,0"
       id="path4136"
       inkscape:connector-curvature="0" />
    <ellipse
       style="opacity:1;fill:none;fill-opacity:1;stroke:#000000;stroke-width:1.99962103;stroke-linecap:round;stroke-miterlimit:4;stroke-dasharray:1.99962103, 3.99924207;stroke-dashoffset:0;stroke-opacity:1"
       id="path5828"
       cx="350"
       cy="447.3512"
       rx="24.000189"
       ry="24.000187" />
    <ellipse
       ry="48.000378"
       rx="48.000381"
       cy="447.3512"
       cx="350"
       id="ellipse6166"
       style="opacity:1;fill:none;fill-opacity:1;stroke:#000000;stroke-width:2;stroke-linecap:round;stroke-miterlimit:4;stroke-dasharray:2,4;stroke-dashoffset:0;stroke-opacity:1" />
    <ellipse
       style="opacity:1;fill:none;fill-opacity:1;stroke:#000000;stroke-width:2;stroke-linecap:round;stroke-miterlimit:4;stroke-dasharray:2,4;stroke-dashoffset:0;stroke-opacity:1"
       id="ellipse6168"
       cx="350"
       cy="447.3512"
       rx="72.000572"
       ry="72.000565" />
    <ellipse
       ry="96.000755"
       rx="96.000763"
       cy="447.3512"
       cx="350"
       id="ellipse6170"
       style="opacity:1;fill:none;fill-opacity:1;stroke:#000000;stroke-width:2;stroke-linecap:round;stroke-miterlimit:4;stroke-dasharray:2,4;stroke-dashoffset:0;stroke-opacity:1" />
    <circle
       cy="447.3512"
       cx="350"
       id="ellipse6172"
       style="opacity:1;fill:#0173b2;fill-opacity:1;stroke:none;stroke-width:0.37135804;stroke-linecap:round;stroke-miterlimit:4;stroke-dasharray:0.37135802, 0.74271604999999985;stroke-dashoffset:0;stroke-opacity:1"
       r="4.4571757" />
    <g
       id="g6255"
       transform="matrix(0.66813943,0,0,0.66813943,352.66764,215.9842)">
      <g
         word-spacing="normal"
         letter-spacing="normal"
         font-size-adjust="none"
         font-stretch="normal"
         font-weight="normal"
         font-variant="normal"
         font-style="normal"
         stroke-miterlimit="10.433"
         xml:space="preserve"
         transform="matrix(1.0629921,0,0,-1.0629921,-186.02362,789.27165)"
         id="g6257"
         style="font-style:normal;font-variant:normal;font-weight:normal;font-stretch:normal;letter-spacing:normal;word-spacing:normal;text-anchor:start;fill:none;fill-opacity:1;fill-rule:evenodd;stroke:#000000;stroke-linecap:butt;stroke-linejoin:miter;stroke-miterlimit:10.43299961;stroke-dasharray:none;stroke-dashoffset:0;stroke-opacity:1"><path
           id="path6259"
           d="m 462.62,410.13 0.25,0.27 0.25,0.26 0.23,0.24 0.23,0.24 0.22,0.23 0.22,0.23 0.21,0.21 0.2,0.21 0.2,0.2 0.2,0.2 0.19,0.19 0.19,0.18 0.18,0.18 0.18,0.18 0.36,0.33 0.34,0.32 0.33,0.3 0.33,0.29 0.32,0.29 0.64,0.56 0.33,0.29 0.33,0.28 c 0,0.05 3.09,2.69 4.88,4.49 4.74,4.63 5.83,7.02 5.83,7.22 0,0.5 -0.45,0.5 -0.55,0.5 -0.34,0 -0.5,-0.1 -0.74,-0.55 -1.5,-2.39 -2.54,-3.19 -3.74,-3.19 -1.19,0 -1.79,0.75 -2.54,1.6 -0.94,1.14 -1.79,2.14 -3.44,2.14 -3.73,0 -6.02,-4.64 -6.02,-5.68 0,-0.25 0.15,-0.55 0.59,-0.55 0.45,0 0.55,0.25 0.65,0.55 0.95,2.29 3.84,2.34 4.24,2.34 1.04,0 1.99,-0.35 3.13,-0.75 2,-0.75 2.55,-0.75 3.84,-0.75 -1.79,-2.14 -5.98,-5.72 -6.92,-6.52 l -4.49,-4.18 c -3.38,-3.34 -5.13,-6.18 -5.13,-6.53 0,-0.5 0.5,-0.5 0.6,-0.5 0.4,0 0.5,0.1 0.8,0.65 1.14,1.74 2.64,3.09 4.23,3.09 1.15,0 1.64,-0.45 2.89,-1.89 0.85,-1.05 1.74,-1.85 3.19,-1.85 4.93,0 7.82,6.33 7.82,7.67 0,0.25 -0.2,0.5 -0.6,0.5 -0.45,0 -0.55,-0.3 -0.69,-0.65 -1.15,-3.24 -4.34,-4.18 -5.99,-4.18 -0.99,0 -1.89,0.3 -2.93,0.65 -1.7,0.65 -2.44,0.85 -3.49,0.85 -0.1,0 -0.9,0 -1.35,-0.16 z"
           inkscape:connector-curvature="0"
           style="fill:#000000;stroke-width:0" /></g>    </g>
    <path
       inkscape:connector-curvature="0"
       id="path6283"
       d="m 350,357.3512 0,180"
       style="fill:none;fill-rule:evenodd;stroke:#029e73;stroke-width:1;stroke-linecap:butt;stroke-linejoin:miter;stroke-miterlimit:4;stroke-dasharray:none;stroke-opacity:1" />
    <path
       style="fill:none;fill-rule:evenodd;stroke:#029e73;stroke-width:1;stroke-linecap:butt;stroke-linejoin:miter;stroke-miterlimit:4;stroke-dasharray:none;stroke-opacity:1"
       d="m 310,357.3512 0,180"
       id="path6291"
       inkscape:connector-curvature="0" />
    <path
       inkscape:connector-curvature="0"
       id="path6293"
       d="m 270,357.3512 0,180"
       style="fill:none;fill-rule:evenodd;stroke:#029e73;stroke-width:1;stroke-linecap:butt;stroke-linejoin:miter;stroke-miterlimit:4;stroke-dasharray:none;stroke-opacity:1" />
    <path
       style="fill:none;fill-rule:evenodd;stroke:#029e73;stroke-width:1;stroke-linecap:butt;stroke-linejoin:miter;stroke-miterlimit:4;stroke-dasharray:none;stroke-opacity:1"
       d="m 230,357.3512 0,180"
       id="path6295"
       inkscape:connector-curvature="0" />
    <path
       inkscape:connector-curvature="0"
       id="path6297"
       d="m 190,357.3512 0,180"
       style="fill:none;fill-rule:evenodd;stroke:#029e73;stroke-width:1;stroke-linecap:butt;stroke-linejoin:miter;stroke-miterlimit:4;stroke-dasharray:none;stroke-opacity:1" />
    <g
       transform="matrix(0.66814656,0,0,0.66814656,325.40547,113.84618)"
       id="g6492">
      <g
         style="font-style:normal;font-variant:normal;font-weight:normal;font-stretch:normal;letter-spacing:normal;word-spacing:normal;text-anchor:start;fill:none;fill-opacity:1;fill-rule:evenodd;stroke:#000000;stroke-linecap:butt;stroke-linejoin:miter;stroke-miterlimit:10.43299961;stroke-dasharray:none;stroke-dashoffset:0;stroke-opacity:1"
         id="content"
         transform="matrix(1.0629921,0,0,-1.0629921,-186.02362,789.27165)"
         xml:space="preserve"
         stroke-miterlimit="10.433"
         font-style="normal"
         font-variant="normal"
         font-weight="normal"
         font-stretch="normal"
         font-size-adjust="none"
         letter-spacing="normal"
         word-spacing="normal"><path
           style="fill:#000000;stroke-width:0"
           inkscape:connector-curvature="0"
           d="m 460.38,408.94 -0.01,-0.07 -0.02,-0.08 -0.01,-0.07 -0.02,-0.08 -0.03,-0.16 -0.04,-0.16 -0.04,-0.16 -0.03,-0.16 -0.04,-0.16 -0.04,-0.16 -0.01,-0.08 -0.02,-0.07 -0.02,-0.07 -0.01,-0.07 -0.02,-0.07 -0.01,-0.07 -0.01,-0.06 -0.02,-0.06 -0.01,-0.05 -0.01,-0.06 -0.01,-0.05 0,-0.04 -0.01,-0.04 0,-0.04 -0.01,-0.03 0,-0.02 c 0,-0.9 0.7,-1.35 1.45,-1.35 0.6,0 1.5,0.4 1.84,1.4 0.1,0.2 1.8,6.97 1.99,7.87 0.4,1.64 1.3,5.13 1.6,6.47 0.2,0.65 1.59,2.99 2.79,4.09 0.4,0.34 1.84,1.64 3.99,1.64 1.29,0 2.03,-0.6 2.09,-0.6 -1.5,-0.25 -2.59,-1.44 -2.59,-2.73 0,-0.8 0.54,-1.75 1.89,-1.75 1.34,0 2.74,1.14 2.74,2.94 0,1.74 -1.6,3.24 -4.13,3.24 -3.24,0 -5.43,-2.44 -6.38,-3.84 -0.4,2.24 -2.19,3.84 -4.53,3.84 -2.3,0 -3.24,-1.95 -3.69,-2.84 -0.9,-1.7 -1.54,-4.68 -1.54,-4.83 0,-0.5 0.49,-0.5 0.59,-0.5 0.5,0 0.55,0.05 0.85,1.14 0.84,3.54 1.84,5.93 3.64,5.93 0.84,0 1.54,-0.4 1.54,-2.29 0,-1.04 -0.15,-1.59 -0.8,-4.18 z"
           id="path6495" /></g>    </g>
    <g
       id="g6549"
       transform="matrix(0.27816065,0,0,0.27816065,295.4311,344.72239)">
      <g
         word-spacing="normal"
         letter-spacing="normal"
         font-size-adjust="none"
         font-stretch="normal"
         font-weight="normal"
         font-variant="normal"
         font-style="normal"
         stroke-miterlimit="10.433"
         xml:space="preserve"
         transform="matrix(1.0629921,0,0,-1.0629921,-186.02362,789.27165)"
         id="g6551"
         style="font-style:normal;font-variant:normal;font-weight:normal;font-stretch:normal;letter-spacing:normal;word-spacing:normal;text-anchor:start;fill:none;fill-opacity:1;fill-rule:evenodd;stroke:#000000;stroke-linecap:butt;stroke-linejoin:miter;stroke-miterlimit:10.43299961;stroke-dasharray:none;stroke-dashoffset:0;stroke-opacity:1"><path
           id="path6553"
           d="m 462.33,409.84 5.28,5.12 c 7.77,6.88 10.76,9.57 10.76,14.55 0,5.68 -4.49,9.67 -10.57,9.67 -5.62,0 -9.31,-4.59 -9.31,-9.02 0,-2.79 2.49,-2.79 2.64,-2.79 0.85,0 2.59,0.6 2.59,2.64 0,1.29 -0.9,2.59 -2.64,2.59 -0.4,0 -0.5,0 -0.65,-0.05 1.15,3.24 3.84,5.08 6.73,5.08 4.53,0 6.67,-4.03 6.67,-8.12 0,-3.98 -2.49,-7.92 -5.23,-11.01 l -9.56,-10.66 c -0.55,-0.54 -0.55,-0.64 -0.55,-1.84 l 18.48,0 1.4,8.67 -1.25,0 c -0.25,-1.5 -0.6,-3.69 -1.1,-4.44 -0.34,-0.39 -3.63,-0.39 -4.73,-0.39 z"
           inkscape:connector-curvature="0"
           style="fill:#000000;stroke-width:0" /><path
           id="path6555"
           d="m 502.66,430.91 0,0.31 -0.01,0.34 -0.01,0.36 -0.02,0.37 -0.03,0.38 -0.04,0.4 -0.05,0.41 -0.06,0.41 -0.06,0.42 -0.08,0.42 -0.09,0.43 -0.1,0.42 -0.11,0.43 -0.13,0.42 -0.13,0.41 -0.16,0.4 -0.17,0.4 -0.18,0.39 -0.2,0.37 -0.22,0.35 -0.23,0.34 -0.25,0.32 -0.27,0.3 -0.29,0.27 -0.31,0.25 -0.17,0.12 -0.16,0.11 -0.18,0.1 -0.17,0.09 -0.19,0.09 -0.19,0.07 -0.19,0.07 -0.2,0.06 -0.21,0.06 -0.21,0.04 -0.21,0.03 -0.23,0.03 -0.23,0.01 -0.23,0.01 -0.05,-1.1 c 2.44,0 2.74,-3.18 2.74,-6.02 0,-2.45 -0.4,-4.99 -1.59,-9.92 l -10.42,0 c 0.85,3.19 1.84,7.17 3.84,10.71 1.34,2.44 3.18,5.23 5.43,5.23 l 0.05,1.1 c -6.93,0 -14.6,-14.05 -14.6,-25.46 0,-4.68 1.45,-10.21 5.98,-10.21 l 0,1.1 c -1.64,0 -2.69,1.44 -2.69,6.07 0,2.1 0.3,4.99 1.59,9.87 l 10.37,0 c -0.55,-2.29 -1.6,-6.53 -3.49,-10.11 -1.74,-3.39 -3.64,-5.83 -5.78,-5.83 l 0,-1.1 c 7.02,0 14.59,14.3 14.59,25.46 z"
           inkscape:connector-curvature="0"
           style="fill:#000000;stroke-width:0" /></g>    </g>
  </g>
</svg>
